<?xml version="1.0" encoding="utf-8"?>
<!-- Generated by IcoMoon.io -->
<!DOCTYPE svg PUBLIC "-//W3C//DTD SVG 1.1//EN" "http://www.w3.org/Graphics/SVG/1.1/DTD/svg11.dtd">

<svg version="1.1" xmlns="http://www.w3.org/2000/svg" xmlns:xlink="http://www.w3.org/1999/xlink" width="224" height="32" viewBox="0 0 224 32">
<defs>
<g id="icon-iconfont-qzone">
	<path class="path1" d="M16.020 0.972c-8.457 0-15.312 6.855-15.312 15.312s6.855 15.312 15.312 15.312 15.312-6.855 15.312-15.312-6.855-15.312-15.312-15.312zM25.489 13.982c-0.050 0.299-0.748 0.873-0.748 0.873l-3.992 3.667 0.125 0.723c-1.472 0-3.543-0.025-4.69-0.075-1.896-0.1-0.624-0.798-0.624-0.798s2.47-1.846 4.191-2.844c1.497-0.873 0.649-0.873-0.274-0.998-3.667-0.374-8.607 0.249-8.782 0.349 0 0 4.94 0.274 6.312 0.374 1.397 0.075 0.299 0.349-0.050 0.649-0.324 0.299-5.414 3.617-4.94 3.767 3.567 0.524 6.985 0.175 8.906-0.125l1.422-0.225-1.322 0.699 0.674 3.842c0 0 0.225 1.023 0.075 1.173-0.15 0.175-1.272-0.474-1.272-0.474l-4.491-2.669-4.74 2.769c0 0-0.773 0.499-0.998 0.399-0.15-0.050 0.075-1.148 0.075-1.148l0.948-5.389-3.942-3.592c0 0-0.873-0.674-0.798-0.948 0.050-0.225 1.497-0.324 1.497-0.324l5.064-0.599 2.195-4.441c0 0 0.499-1.098 0.699-1.123 0.225-0.025 0.674 1.023 0.674 1.023l2.27 4.54 5.613 0.674c0 0 0.948 0.075 0.923 0.249z"></path>
</g>
<g id="icon-iconfont-douban">
	<path class="path1" d="M10.612 12.263h9.78v4.075h-9.78v-4.075zM15.947 1.015c-8.462 0-15.322 6.861-15.322 15.323s6.86 15.322 15.322 15.322c8.462 0 15.322-6.86 15.322-15.322s-6.86-15.323-15.322-15.323zM7.352 6.558h17.115v1.63h-17.115v-1.63zM22.838 10.633v7.335h-14.67v-7.335h14.67zM24.468 24.488h-17.93v-1.63h5.594c-0.488-1.63-1.124-2.277-1.914-3.461l1.914-0.684c0.76 1.124 1.437 2.514 2.037 4.144h3.621c0.717-1.63 1.347-2.733 1.888-4.219l2.081 0.833c-0.544 1.254-1.131 1.756-1.753 3.386h4.463v1.63z"></path>
</g>
<g id="icon-iconfont-qq">
	<path class="path1" d="M15.525 0.627c-8.486 0-15.366 6.879-15.366 15.366s6.879 15.366 15.366 15.366 15.366-6.879 15.366-15.366-6.879-15.366-15.366-15.366zM22.188 19.597c0 0-0.476 1.296-1.349 2.46 0 0 1.56 0.529 1.428 1.904 0 0 0.052 1.534-3.333 1.428 0 0-2.381-0.185-3.095-1.19h-0.629c-0.714 1.005-3.095 1.19-3.095 1.19-3.386 0.106-3.333-1.428-3.333-1.428-0.133-1.375 1.428-1.904 1.428-1.904-0.873-1.164-1.349-2.46-1.349-2.46-2.116 3.412-1.904-0.476-1.904-0.476 0.397-2.301 2.063-3.809 2.063-3.809-0.238-2.089 0.635-2.46 0.635-2.46 0.183-6.453 5.734-6.352 5.869-6.348 0.135-0.003 5.686-0.105 5.869 6.348 0 0 0.873 0.371 0.635 2.46 0 0 1.666 1.508 2.063 3.809-0 0 0.211 3.888-1.905 0.476z"></path>
</g>
<g id="icon-iconfont-renren">
	<path class="path1" d="M16.154 20.188c0.151 0.096 0.275 0.303 0.275 0.454 0 0.165 0.386 1.088 0.854 2.079 0.509 1.060 1.57 2.533 2.644 3.676 0.991 1.047 2.217 2.176 2.74 2.492 0.371 0.217 0.153 0.078 0.636 0.44l0.020 0.036c-2.274 1.309-4.661 1.824-7.263 1.89-2.259 0.008-4.469-0.526-6.511-1.481-0.275-0.128-0.533-0.289-0.799-0.434 0.146-0.185 0.376-0.3 0.575-0.423 0.509-0.317 1.735-1.418 2.74-2.451 1.143-1.198 2.093-2.52 2.63-3.663 0.454-0.991 0.909-2.010 1.005-2.286s0.303-0.427 0.454-0.33zM18.501 1.426c1.229 0.251 1.509 0.263 2.722 0.707 5.080 1.857 8.867 6.469 9.681 11.819 0.454 2.983 0.002 6.077-1.308 8.797-0.657 1.365-1.303 2.233-2.252 3.382-0.425-0.088-0.179-0.020-0.726-0.243-0.509-0.248-1.735-1.198-2.699-2.107-0.978-0.909-2.23-2.341-2.795-3.167-0.564-0.84-1.239-2.093-1.515-2.768-0.275-0.688-0.661-1.928-0.867-2.754-0.248-1.033-0.372-3.47-0.372-7.601zM13.423 1.508c0.092 1.955 0.102 2.89 0.107 3.577 0.014 1.829 0.015 3.659-0.002 5.488-0.012 1.34 0.020 2.764-0.191 4.093-0.116 0.734-0.144 0.774-0.323 1.391-0.289 0.909-0.812 2.217-1.143 2.892-0.344 0.688-1.184 1.996-1.873 2.919-0.688 0.909-1.996 2.203-2.919 2.878s-1.914 1.308-2.217 1.418l-0.050 0.014c-0.921-1.029-1.691-2.184-2.29-3.429-2.64-5.484-1.676-12.1 2.42-16.608 1.626-1.789 4.84-3.61 5.953-4.009s2.322-0.761 2.527-0.625z"></path>
</g>
<g id="icon-iconfont-sina">
	<path class="path1" d="M11.264 19.077c-0.76 0.080-1.304 0.742-1.304 1.375 0 0.635 0.612 1.073 1.372 0.985 0.757-0.086 1.372-0.673 1.372-1.305-0-0.637-0.567-1.14-1.44-1.056zM13.193 18.554c-0.261 0.189-0.314 0.55-0.172 0.775 0.136 0.23 0.453 0.256 0.71 0.064 0.251-0.198 0.349-0.544 0.213-0.775-0.136-0.225-0.449-0.289-0.751-0.064zM15.836 1.349c-8.352 0-15.137 6.776-15.137 15.134 0 8.354 6.785 15.126 15.137 15.126 8.359 0 15.134-6.771 15.134-15.126 0-8.358-6.775-15.134-15.134-15.134zM24.108 20.278c-1.668 3.543-7.169 5.267-11.244 4.948-3.874-0.305-8.855-1.591-9.37-6.279 0 0-0.272-2.123 1.786-4.871 0 0 2.96-4.135 6.41-5.315 3.451-1.175 3.853 0.813 3.853 1.988-0.183 0.996-0.526 1.582 0.769 1.18 0 0 3.392-1.573 4.788-0.178 1.126 1.128 0.186 2.677 0.186 2.677s-0.468 0.518 0.494 0.705c0.964 0.192 3.996 1.596 2.328 5.146zM20.764 10.488c-0.369 0-0.666-0.299-0.666-0.665 0-0.373 0.296-0.671 0.666-0.671 0 0 4.158-0.769 3.661 3.7 0 0.027-0.003 0.047-0.009 0.071-0.047 0.316-0.325 0.559-0.654 0.559-0.37 0-0.671-0.296-0.671-0.666 0 0 0.659-2.986-2.328-2.328zM27.788 13.604c-0.109 1.61-0.486 1.046-0.932 1.046-0.534 0-0.967-0.27-0.967-0.805 0-0.464 0.192-0.853 0.192-0.853 0.057-0.196 0.509-1.367-0.299-3.18-1.478-2.484-4.457-2.5-4.809-2.358-0.355 0.138-0.879 0.22-0.879 0.22-0.538 0-0.97-0.43-0.97-0.962 0-0.446 0.299-0.817 0.706-0.932 0 0 0.009-0.002 0.024-0.005 0.030-0.006 0.060-0.011 0.093-0.014 0.413-0.080 1.892-0.646 3.33-0.31 2.573 0.6 6.105 3.324 4.516 8.153h-0.006zM13.166 14.307c-4.047 0.185-7.317 2.353-7.317 5.056 0 2.7 3.27 4.729 7.317 4.541 4.049-0.184 7.326-2.719 7.326-5.418s-3.277-4.366-7.326-4.179zM15.922 21.106c-1.239 1.6-3.691 2.38-6.072 1.091-1.132-0.615-1.092-1.822-1.092-1.822s-0.47-3.813 3.599-4.288c4.076-0.474 4.803 3.419 3.564 5.019z"></path>
</g>
</defs>

<g fill="#000000">
	<use xlink:href="#icon-iconfont-qzone" transform="translate(0 0)"></use>
	<use xlink:href="#icon-iconfont-douban" transform="translate(48 0)"></use>
	<use xlink:href="#icon-iconfont-qq" transform="translate(96 0)"></use>
	<use xlink:href="#icon-iconfont-renren" transform="translate(144 0)"></use>
	<use xlink:href="#icon-iconfont-sina" transform="translate(192 0)"></use>
</g>

</svg>
